<?xml version="1.0" encoding="UTF-8"?>
<svg width="27px" height="27px" viewBox="0 0 27 27" version="1.1" xmlns="http://www.w3.org/2000/svg" xmlns:xlink="http://www.w3.org/1999/xlink">
    <title>Enterprise / Health / 3D-MPR-Toggle / 24</title>
    <defs>
        <filter id="filter-1">
            <feColorMatrix in="SourceGraphic" type="matrix" values="0 0 0 0 0.133333 0 0 0 0 0.101961 0 0 0 0 0.329412 0 0 0 1.000000 0"></feColorMatrix>
        </filter>
    </defs>
    <g id="Iconos" stroke="none" stroke-width="1" fill="none" fill-rule="evenodd">
        <g id="Enterprise-/-Health-/-3D-MPR-Toggle-/-24" transform="translate(-1.000000, -1.000000)" filter="url(#filter-1)">
            <g>
                <path d="M9.96875,1.8125 L1.8125,1.8125 L1.8125,9.96875 L3.625,9.96875 L3.625,3.625 L9.96875,3.625 L9.96875,1.8125 Z M1.8125,19.03125 L1.8125,27.1875 L9.96875,27.1875 L9.96875,25.375 L3.625,25.375 L3.625,19.03125 L1.8125,19.03125 Z M27.1875,9.96875 L27.1875,1.8125 L19.03125,1.8125 L19.03125,3.625 L25.375,3.625 L25.375,9.96875 L27.1875,9.96875 Z M19.03125,27.1875 L27.1875,27.1875 L27.1875,19.03125 L25.375,19.03125 L25.375,25.375 L19.03125,25.375 L19.03125,27.1875 Z M23.1003125,9.1803125 L14.9440625,4.6490625 C14.6636678,4.48717653 14.3182072,4.48717653 14.0378125,4.6490625 L5.8815625,9.1803125 C5.60353553,9.34513457 5.43433346,9.64555458 5.43745632,9.96875 L5.43745632,19.03125 C5.43806341,19.3581924 5.61468374,19.6594859 5.8996875,19.8196875 L14.0559375,24.3509375 C14.3363322,24.5128235 14.6817928,24.5128235 14.9621875,24.3509375 L23.1184375,19.8196875 C23.3964645,19.6548654 23.5656665,19.3544454 23.5625437,19.03125 L23.5625437,9.96875 C23.5619366,9.64180756 23.3853163,9.34051405 23.1003125,9.1803125 Z M14.5,6.470625 L20.789375,9.96875 L14.5,13.466875 L8.210625,9.96875 L14.5,6.470625 Z M7.25,11.509375 L13.59375,15.0346875 L13.59375,22.021875 L7.25,18.4965625 L7.25,11.509375 Z M15.40625,22.021875 L15.40625,15.0346875 L21.75,11.509375 L21.75,18.4965625 L15.40625,22.021875 Z" id="Fill" fill="#000000"></path>
            </g>
        </g>
    </g>
</svg>