<?xml version="1.0" encoding="UTF-8"?>
<svg width="19px" height="27px" viewBox="0 0 19 27" version="1.1" xmlns="http://www.w3.org/2000/svg" xmlns:xlink="http://www.w3.org/1999/xlink">
    <title>Person / Senses / idea / 24</title>
    <defs>
        <filter id="filter-1">
            <feColorMatrix in="SourceGraphic" type="matrix" values="0 0 0 0 0.132066 0 0 0 0 0.100366 0 0 0 0 0.328606 0 0 0 1.000000 0"></feColorMatrix>
        </filter>
    </defs>
    <g id="Iconos" stroke="none" stroke-width="1" fill="none" fill-rule="evenodd">
        <g id="Person-/-Senses-/-idea-/-24" transform="translate(-5.000000, -1.000000)" filter="url(#filter-1)">
            <g>
                <path d="M9.96875,21.75 L19.03125,21.75 L19.03125,23.5625 L9.96875,23.5625 L9.96875,21.75 Z M11.78125,25.375 L17.21875,25.375 L17.21875,27.1875 L11.78125,27.1875 L11.78125,25.375 Z M14.5,1.8125 C9.49491945,1.8125 5.4375,5.86991945 5.4375,10.875 C5.31317563,13.54684 6.47966377,16.115811 8.573125,17.780625 C9.479375,18.6234375 9.96875,19.10375 9.96875,19.9375 L11.78125,19.9375 C11.78125,18.27 10.7753125,17.3365625 9.7965625,16.439375 C8.07666248,15.1223032 7.12255143,13.0375196 7.25,10.875 C7.25000006,6.87093561 10.4959356,3.62500011 14.5,3.62500011 C18.5040644,3.62500011 21.7499999,6.87093561 21.75,10.875 C21.8753344,13.0391597 20.9176802,15.1242648 19.194375,16.439375 C18.2246875,17.345625 17.21875,18.251875 17.21875,19.9375 L19.03125,19.9375 C19.03125,19.10375 19.5115625,18.6234375 20.426875,17.7715625 C22.5188813,16.1095943 23.6853695,13.5439945 23.5625,10.875 C23.5625,8.47147556 22.6077036,6.16639323 20.9081552,4.4668448 C19.2086068,2.76729637 16.9035244,1.8125 14.5,1.8125 Z" id="Fill" fill="#000000"></path>
            </g>
        </g>
    </g>
</svg>