<?xml version="1.0" encoding="UTF-8"?>
<svg width="21px" height="21px" viewBox="0 0 21 21" version="1.1" xmlns="http://www.w3.org/2000/svg" xmlns:xlink="http://www.w3.org/1999/xlink">
    <title>Actions / Operations / filter / 24</title>
    <defs>
        <filter id="filter-1">
            <feColorMatrix in="SourceGraphic" type="matrix" values="0 0 0 0 0.132066 0 0 0 0 0.100366 0 0 0 0 0.328606 0 0 0 1.000000 0"></feColorMatrix>
        </filter>
    </defs>
    <g id="Iconos" stroke="none" stroke-width="1" fill="none" fill-rule="evenodd">
        <g id="Actions-/-Operations-/-filter-/-24" transform="translate(-3.000000, -3.000000)" filter="url(#filter-1)">
            <g>
                <path d="M15.1875,23.625 L11.8125,23.625 C10.8805195,23.625 10.125,22.8694805 10.125,21.9375 L10.125,15.5334375 L3.8728125,9.28125 C3.5559103,8.96623569 3.37688392,8.53839297 3.375,8.0915625 L3.375,5.0625 C3.375,4.13051948 4.13051948,3.375 5.0625,3.375 L21.9375,3.375 C22.8694805,3.375 23.625,4.13051948 23.625,5.0625 L23.625,8.0915625 C23.6231161,8.53839297 23.4440897,8.96623569 23.1271875,9.28125 L16.875,15.5334375 L16.875,21.9375 C16.875,22.8694805 16.1194805,23.625 15.1875,23.625 Z M5.0625,5.0625 L5.0625,8.0915625 L11.8125,14.8415625 L11.8125,21.9375 L15.1875,21.9375 L15.1875,14.8415625 L21.9375,8.0915625 L21.9375,5.0625 L5.0625,5.0625 Z" id="Fill" fill="#000000"></path>
            </g>
        </g>
    </g>
</svg>