<?xml version="1.0" encoding="UTF-8"?>
<svg width="29px" height="25px" viewBox="0 0 29 25" version="1.1" xmlns="http://www.w3.org/2000/svg" xmlns:xlink="http://www.w3.org/1999/xlink">
    <title>Actions / Navigation / home / 24</title>
    <defs>
        <filter id="filter-1">
            <feColorMatrix in="SourceGraphic" type="matrix" values="0 0 0 0 0.132066 0 0 0 0 0.100366 0 0 0 0 0.328606 0 0 0 1.000000 0"></feColorMatrix>
        </filter>
    </defs>
    <g id="Iconos" stroke="none" stroke-width="1" fill="none" fill-rule="evenodd">
        <g id="Actions-/-Navigation-/-home-/-24" transform="translate(0.000000, -1.000000)" filter="url(#filter-1)">
            <g>
                <path d="M15.0528125,2.0028125 C14.7234407,1.74253969 14.2584343,1.74253969 13.9290625,2.0028125 L0.90625,12.161875 L2.03,13.59375 L3.625,12.343125 L3.625,23.5625 C3.625,24.5635161 4.43648389,25.375 5.4375,25.375 L23.5625,25.375 C24.5635161,25.375 25.375,24.5635161 25.375,23.5625 L25.375,12.3521875 L26.97,13.59375 L28.09375,12.1709375 L15.0528125,2.0028125 Z M16.3125,23.5625 L12.6875,23.5625 L12.6875,16.3125 L16.3125,16.3125 L16.3125,23.5625 Z M18.125,23.5625 L18.125,16.3125 C18.125,15.3114839 17.3135161,14.5 16.3125,14.5 L12.6875,14.5 C11.6864839,14.5 10.875,15.3114839 10.875,16.3125 L10.875,23.5625 L5.4375,23.5625 L5.4375,10.929375 L14.5,3.8696875 L23.5625,10.9384375 L23.5625,23.5625 L18.125,23.5625 Z" id="Fill" fill="#000000"></path>
            </g>
        </g>
    </g>
</svg>