<?xml version="1.0" encoding="UTF-8"?>
<svg width="25px" height="21px" viewBox="0 0 25 21" version="1.1" xmlns="http://www.w3.org/2000/svg" xmlns:xlink="http://www.w3.org/1999/xlink">
    <title>Tools / Instruments / binoculars / 24</title>
    <defs>
        <filter id="filter-1">
            <feColorMatrix in="SourceGraphic" type="matrix" values="0 0 0 0 0.132066 0 0 0 0 0.100366 0 0 0 0 0.328606 0 0 0 1.000000 0"></feColorMatrix>
        </filter>
    </defs>
    <g id="Iconos" stroke="none" stroke-width="1" fill="none" fill-rule="evenodd">
        <g id="Tools-/-Instruments-/-binoculars-/-24" transform="translate(-1.000000, -3.000000)" filter="url(#filter-1)">
            <g>
                <path d="M23.625,6.75 L23.625,4.21875 C23.625,3.75275974 23.2472403,3.375 22.78125,3.375 L17.71875,3.375 C17.2527597,3.375 16.875,3.75275974 16.875,4.21875 L16.875,6.75 C15.9430195,6.75 15.1875,7.50551948 15.1875,8.4375 L15.1875,10.125 L11.8125,10.125 L11.8125,8.4375 C11.8125,7.50551948 11.0569805,6.75 10.125,6.75 L10.125,4.21875 C10.125,3.75275974 9.74724026,3.375 9.28125,3.375 L4.21875,3.375 C3.75275974,3.375 3.375,3.75275974 3.375,4.21875 L3.375,6.75 C2.44301948,6.75 1.6875,7.50551948 1.6875,8.4375 L1.6875,18.5625 C1.69111709,19.1617499 2.0122686,19.7141305 2.53125,20.01375 L2.53125,22.78125 C2.53125,23.2472403 2.90900974,23.625 3.375,23.625 L10.125,23.625 C10.5909903,23.625 10.96875,23.2472403 10.96875,22.78125 L10.96875,20.01375 C11.4877314,19.7141305 11.8088829,19.1617499 11.8125,18.5625 L11.8125,16.875 L15.1875,16.875 L15.1875,18.5625 C15.1911171,19.1617499 15.5122686,19.7141305 16.03125,20.01375 L16.03125,22.78125 C16.03125,23.2472403 16.4090097,23.625 16.875,23.625 L23.625,23.625 C24.0909903,23.625 24.46875,23.2472403 24.46875,22.78125 L24.46875,20.01375 C24.9877314,19.7141305 25.3088829,19.1617499 25.3125,18.5625 L25.3125,8.4375 C25.3125,7.50551948 24.5569805,6.75 23.625,6.75 Z M9.28125,21.9375 L4.21875,21.9375 L4.21875,20.25 L9.28125,20.25 L9.28125,21.9375 Z M10.125,18.5625 L3.375,18.5625 L3.375,8.4375 L5.0625,8.4375 L5.0625,5.0625 L8.4375,5.0625 L8.4375,8.4375 L10.125,8.4375 L10.125,18.5625 Z M11.8125,15.1875 L11.8125,11.8125 L15.1875,11.8125 L15.1875,15.1875 L11.8125,15.1875 Z M22.78125,21.9375 L17.71875,21.9375 L17.71875,20.25 L22.78125,20.25 L22.78125,21.9375 Z M23.625,18.5625 L16.875,18.5625 L16.875,8.4375 L18.5625,8.4375 L18.5625,5.0625 L21.9375,5.0625 L21.9375,8.4375 L23.625,8.4375 L23.625,18.5625 Z" id="Fill" fill="#000000"></path>
            </g>
        </g>
    </g>
</svg>