<?xml version="1.0" encoding="UTF-8"?>
<svg width="19px" height="27px" viewBox="0 0 19 27" version="1.1" xmlns="http://www.w3.org/2000/svg" xmlns:xlink="http://www.w3.org/1999/xlink">
    <title>Person / User / user / 24</title>
    <defs>
        <filter id="filter-1">
            <feColorMatrix in="SourceGraphic" type="matrix" values="0 0 0 0 0.132066 0 0 0 0 0.100366 0 0 0 0 0.328606 0 0 0 1.000000 0"></feColorMatrix>
        </filter>
    </defs>
    <g id="Iconos" stroke="none" stroke-width="1" fill="none" fill-rule="evenodd">
        <g id="Person-/-User-/-user-/-24" transform="translate(-5.000000, -1.000000)" filter="url(#filter-1)">
            <g>
                <path d="M14.5,3.625 C17.0025403,3.625 19.03125,5.65370973 19.03125,8.15625 C19.03125,10.6587903 17.0025403,12.6875 14.5,12.6875 C11.9974597,12.6875 9.96875,10.6587903 9.96875,8.15625 C9.96875,5.65370973 11.9974597,3.625 14.5,3.625 L14.5,3.625 Z M14.5,1.8125 C10.9964436,1.8125 8.15625,4.65269362 8.15625,8.15625 C8.15625,11.6598064 10.9964436,14.5 14.5,14.5 C18.0035564,14.5 20.84375,11.6598064 20.84375,8.15625 C20.84375,4.65269362 18.0035564,1.8125 14.5,1.8125 Z M23.5625,27.1875 L21.75,27.1875 L21.75,22.65625 C21.75,21.4544878 21.2726018,20.3019466 20.4228276,19.4521724 C19.5730534,18.6023982 18.4205122,18.125 17.21875,18.125 L11.78125,18.125 C9.27870973,18.125 7.25,20.1537097 7.25,22.65625 L7.25,27.1875 L5.4375,27.1875 L5.4375,22.65625 C5.4375,19.1526936 8.27769362,16.3125 11.78125,16.3125 L17.21875,16.3125 C20.7223064,16.3125 23.5625,19.1526936 23.5625,22.65625 L23.5625,27.1875 Z" id="Fill" fill="#000000"></path>
            </g>
        </g>
    </g>
</svg>