<?xml version="1.0" encoding="UTF-8"?>
<svg width="22px" height="22px" viewBox="0 0 22 22" version="1.1" xmlns="http://www.w3.org/2000/svg" xmlns:xlink="http://www.w3.org/1999/xlink">
    <title>Organization / Status / warning--filled / 24</title>
    <g id="Iconos" stroke="none" stroke-width="1" fill="none" fill-rule="evenodd">
        <g id="Organization-/-Status-/-warning--filled-/-24" transform="translate(-1.000000, -1.000000)">
            <path d="M12,1 C5.9,1 1,5.9 1,12 C1,18.1 5.9,23 12,23 C18.1,23 23,18.1 23,12 C23,5.9 18.1,1 12,1 Z M11.1,6 L12.9,6 L12.9,14 L11.1,14 L11.1,6 Z M12,19.2 C11.3,19.2 10.8,18.6 10.8,18 C10.8,17.4 11.4,16.8 12,16.8 C12.6,16.8 13.2,17.4 13.2,18 C13.2,18.6 12.7,19.2 12,19.2 Z" id="Fill" fill="#DA1E28"></path>
            <path d="M13.2,18 C13.2,18.7 12.6,19.2 12,19.2 C11.4,19.2 10.8,18.6 10.8,18 C10.8,17.4 11.4,16.8 12,16.8 C12.6,16.8 13.2,17.3 13.2,18 Z M12.9,6 L11.1,6 L11.1,14 L12.9,14 L12.9,6 Z" id="Inner-Fill" fill="#000000" opacity="0"></path>
        </g>
    </g>
</svg>